<?xml version="1.0" encoding="UTF-8"?>
<svg id="_레이어_1" data-name="레이어 1" xmlns="http://www.w3.org/2000/svg" viewBox="0 0 512 512">
  <defs>
    <style>
      .cls-1 {
        fill: #1a1a1a;
      }

      .cls-2 {
        fill: #bfff00;
      }
    </style>
  </defs>
  <rect class="cls-2" width="512" height="512"/>
  <path class="cls-1" d="M364.54,397.82c-46.99,33.01-122.63,36.98-176.61,22.24-11.19-3.05-21.62-6.73-31.92-11.94-22.21-11.23-41.64-27.35-49.69-51.61-2.01-6.06-2.63-11.99-2.6-18.33.06-11.69,3.87-22.65,11.54-31.29,11.25-12.67,28.38-17.71,44.2-11.49l26.55,10.42,24.06,9.12c4.17,1.58,8.08,2.54,12.45,3.67,2.62.68,6.07,3.28,5.43,6.34-1.37,6.56-.62,12.56,3.48,17.93,4.31,5.64,11.18,8.81,18.49,7.08l46.22-10.94c6.06-1.43,10.38-6.58,12.11-11.59,2.13-6.18,1.08-13.01-3.58-17.68l-31.6-31.65c-4.21-4.22-9.69-6-15.57-4.88-5.1.98-9.89,4.68-12.01,10.05-1.73,4.36-5.78,6.57-10.47,5.68-21.4-4.06-46.3-10.75-65.96-19.96-11.74-5.5-22.17-12.3-31.57-21.2-15.72-14.87-25.44-35.05-26.15-56.8-.41-12.7,1.51-24.72,6.58-36.23,5.41-12.26,13.03-22.88,23.03-31.86,14.17-12.73,30.69-21.93,48.79-28.12,21.1-7.22,43.06-10.6,65.45-10.95,36.26-.57,77.65,6.6,107.95,27.31,18.36,12.55,32.34,32.44,27.22,55.62-4.62,20.91-25.08,36.97-47.3,28.76l-31.5-11.64c-7.44-2.75-14.53-5.5-22.23-7.41-1.96-.49-3.48-1.06-4.47-2.47-1.18-1.69-.89-3.24-.69-5.36.72-7.33-3.32-14.72-9.85-18.33-4.17-2.31-9.19-3.04-13.87-1.73l-40.41,11.32c-4.33,1.21-8.05,3.18-10.94,6.57-6.61,7.76-4.95,18.58,2.48,25.37l10.26,9.39,22.04,19.53c4.1,3.64,9.93,5.04,15.18,3.77,5.94-1.44,9.99-6.29,11.79-11.87,1.42-4.39,5.17-7.27,9.82-6.33,23.59,4.72,53.15,12.5,74.11,24.26,11.4,6.4,21.63,14.25,30.27,24.01,15.96,18.02,23.91,40.99,23.18,65.02-.57,18.67-5.75,36.34-16.71,51.48-7.53,10.4-16.45,19.36-26.99,26.76Z"/>
</svg>