<?xml version="1.0" encoding="UTF-8"?>
<svg xmlns="http://www.w3.org/2000/svg" viewBox="0 0 40 40">
  <path fill="#4285f4" d="M39.2,20.5c0-1.4-.1-2.8-.4-4.1h-18.8v7.7h10.8c-.5,2.5-1.9,4.6-4,6v5h6.5c3.8-3.5,6-8.6,6-14.7Z"/>
  <path fill="#34a853" d="M20,40c5.4,0,9.9-1.8,13.2-4.8l-6.5-5c-1.8,1.2-4.1,1.9-6.8,1.9-5.2,0-9.6-3.5-11.2-8.2H2.1v5.2c3.3,6.5,10.1,11,17.9,11Z"/>
  <path fill="#fbbc04" d="M8.8,23.8c-.4-1.2-.6-2.5-.6-3.8s.2-2.6.6-3.8v-5.2H2.1c-1.4,2.7-2.1,5.8-2.1,9s.8,6.3,2.1,9l6.7-5.2Z"/>
  <path fill="#e94235" d="M20,8c2.9,0,5.6,1,7.6,3l5.7-5.7C29.9,2,25.4,0,20,0,12.2,0,5.4,4.5,2.1,11l6.7,5.2c1.6-4.7,6-8.2,11.2-8.2Z"/>
</svg>