<?xml version="1.0" encoding="UTF-8"?>
<svg id="Outline" xmlns="http://www.w3.org/2000/svg" version="1.1" viewBox="0 0 512 512">
  <!-- Generator: Adobe Illustrator 30.1.0, SVG Export Plug-In . SVG Version: 2.1.1 Build 136)  -->
  <path d="M438.4,301.8c-10,39.9-33.4,76-65.8,101.7-33.5,26.5-73.8,40.5-116.5,40.5s-58.2-6.8-84.6-20.1c-10.9-5.5-21.2-12.1-30.8-19.6v32.6c0,11.9-9.6,21.5-21.5,21.5s-21.5-9.6-21.5-21.5v-69.3c0-20.1,16.4-36.5,36.5-36.5h69.3c11.9,0,21.5,9.6,21.5,21.5s-9.6,21.5-21.5,21.5h-36.5c25.4,19.3,56.4,29.8,89.2,29.8,68,0,127-46,143.6-111.9,2.7-10.7,13.5-17.2,24.3-14.5,10.7,2.7,17.2,13.5,14.5,24.3ZM112.4,219.9c16.5-65.9,75.5-111.9,143.6-111.9s63.9,10.6,89.2,29.8h-36.5c-11.9,0-21.5,9.6-21.5,21.5s9.6,21.5,21.5,21.5h69.3c20.1,0,36.5-16.4,36.5-36.5v-69.3c0-11.9-9.6-21.5-21.5-21.5s-21.5,9.6-21.5,21.5v32.6c-9.6-7.5-20-14.1-30.8-19.6-26.4-13.3-54.9-20.1-84.6-20.1-42.8,0-83,14-116.5,40.5-32.4,25.7-55.8,61.8-65.8,101.7-2.7,10.7,3.8,21.6,14.5,24.3,1.6.4,3.3.6,4.9.6,9,0,17.1-6.1,19.4-15.1Z"/>
</svg>