<?xml version="1.0" encoding="UTF-8"?>
<svg id="_레이어_1" data-name="레이어 1" xmlns="http://www.w3.org/2000/svg" viewBox="0 0 100 100">
  <defs>
    <style>
      .cls-1 {
        fill: #9ca3af;
      }

      .cls-2 {
        fill: #e5e7eb;
      }
    </style>
  </defs>
  <rect class="cls-2" width="100" height="100"/>
  <path class="cls-1" d="M69.21,75.11c-8.32,5.84-21.71,6.55-31.26,3.94-1.98-.54-3.83-1.19-5.65-2.11-3.93-1.99-7.37-4.84-8.8-9.14-.36-1.07-.47-2.12-.46-3.24.01-2.07.69-4.01,2.04-5.54,1.99-2.24,5.02-3.13,7.83-2.03l4.7,1.84,4.26,1.61c.74.28,1.43.45,2.2.65.46.12,1.07.58.96,1.12-.24,1.16-.11,2.22.62,3.17.76,1,1.98,1.56,3.27,1.25l8.18-1.94c1.07-.25,1.84-1.17,2.14-2.05.38-1.09.19-2.3-.63-3.13l-5.59-5.6c-.75-.75-1.72-1.06-2.76-.86-.9.17-1.75.83-2.13,1.78-.31.77-1.02,1.16-1.85,1-3.79-.72-8.2-1.9-11.68-3.53-2.08-.97-3.92-2.18-5.59-3.75-2.78-2.63-4.5-6.2-4.63-10.06-.07-2.25.27-4.38,1.17-6.41.96-2.17,2.31-4.05,4.08-5.64,2.51-2.25,5.43-3.88,8.64-4.98,3.73-1.28,7.62-1.88,11.59-1.94,6.42-.1,13.75,1.17,19.11,4.83,3.25,2.22,5.73,5.74,4.82,9.85-.82,3.7-4.44,6.55-8.37,5.09l-5.58-2.06c-1.32-.49-2.57-.97-3.94-1.31-.35-.09-.62-.19-.79-.44-.21-.3-.16-.57-.12-.95.13-1.3-.59-2.61-1.74-3.25-.74-.41-1.63-.54-2.46-.31l-7.15,2c-.77.21-1.42.56-1.94,1.16-1.17,1.37-.88,3.29.44,4.49l1.82,1.66,3.9,3.46c.73.64,1.76.89,2.69.67,1.05-.26,1.77-1.11,2.09-2.1.25-.78.92-1.29,1.74-1.12,4.18.84,9.41,2.21,13.12,4.3,2.02,1.13,3.83,2.52,5.36,4.25,2.83,3.19,4.23,7.26,4.1,11.51-.1,3.3-1.02,6.43-2.96,9.11-1.33,1.84-2.91,3.43-4.78,4.74Z"/>
</svg>